<svg xmlns="http://www.w3.org/2000/svg" xmlns:xlink="http://www.w3.org/1999/xlink" width="1920" zoomAndPan="magnify" viewBox="0 0 1440 809.999993" height="1080" preserveAspectRatio="xMidYMid meet" version="1.0"><defs><clipPath id="b24f61bf49"><path d="M 380 437.183594 L 908 437.183594 L 908 760 L 380 760 Z M 380 437.183594 " clip-rule="nonzero"/></clipPath><clipPath id="e9dd17b40b"><path d="M 0 365.539062 L 1440 365.539062 L 1440 810 L 0 810 Z M 0 365.539062 " clip-rule="nonzero"/></clipPath></defs><g clip-path="url(#b24f61bf49)"><path fill="#020202" d="M 905.183594 639.042969 C 907.480469 635.863281 906.242188 633.035156 904.121094 630.207031 C 903.414062 629.144531 903.589844 628.085938 903.589844 627.023438 C 903.589844 625.082031 903.414062 622.960938 900.9375 622.429688 C 898.285156 622.074219 900.230469 619.425781 898.640625 618.363281 C 897.046875 617.304688 895.28125 617.304688 893.867188 616.597656 C 893.6875 616.597656 893.6875 616.242188 893.6875 616.242188 C 892.449219 611.292969 887.5 609.878906 884.671875 606.519531 C 882.371094 603.691406 878.660156 602.632812 876.183594 599.625 C 873.355469 596.089844 868.933594 593.96875 865.753906 590.613281 C 865.398438 590.082031 864.691406 589.90625 864.160156 589.550781 C 861.15625 588.3125 859.742188 584.425781 855.851562 584.601562 C 855.144531 584.601562 855.320312 583.1875 854.964844 582.480469 C 853.550781 579.476562 850.722656 577.886719 848.246094 576.117188 C 846.832031 575.058594 845.066406 574.171875 843.652344 573.113281 C 841.882812 571.875 841.707031 569.753906 840.113281 568.695312 C 835.871094 565.867188 832.863281 562.152344 829.683594 558.265625 C 828.796875 557.203125 827.558594 556.320312 826.324219 555.4375 C 820.488281 550.488281 814.121094 545.890625 809.171875 540.234375 C 805.457031 535.992188 800.683594 533.164062 797.324219 528.921875 C 796.265625 527.6875 794.320312 528.921875 794.140625 527.6875 C 793.257812 523.089844 788.839844 521.5 786.539062 518.140625 C 785.832031 517.257812 785.300781 515.84375 784.242188 515.84375 C 781.410156 516.019531 781.234375 514.429688 780.703125 512.484375 C 780.351562 511.246094 779.46875 510.011719 778.40625 509.480469 C 776.109375 508.242188 774.691406 505.945312 772.394531 504.707031 C 770.980469 503.824219 769.210938 502.585938 768.679688 500.820312 C 767.972656 498.167969 766.207031 496.398438 764.261719 494.632812 C 761.078125 491.625 757.542969 488.796875 754.535156 485.617188 C 750.644531 481.375 745.164062 478.546875 742.335938 473.242188 C 738.09375 471.652344 736.855469 466.878906 733.140625 464.40625 C 728.542969 461.402344 726.070312 455.746094 720.410156 453.976562 C 719.878906 453.800781 719.703125 452.917969 719.351562 452.386719 C 717.582031 449.382812 715.460938 447.261719 711.570312 448.496094 C 712.277344 445.140625 711.570312 444.253906 709.273438 444.609375 C 708.566406 444.609375 708.035156 444.960938 707.503906 445.316406 C 706.441406 445.667969 705.558594 445.316406 705.203125 444.253906 C 704.851562 443.195312 704.496094 441.78125 702.90625 442.839844 C 701.316406 443.902344 701.84375 445.316406 702.90625 446.554688 C 703.613281 447.4375 705.382812 446.90625 705.203125 448.496094 C 700.429688 449.027344 696.71875 447.261719 693.535156 444.078125 C 691.589844 442.3125 689.644531 439.128906 685.933594 440.71875 C 684.871094 441.074219 683.632812 440.71875 682.925781 439.660156 C 682.574219 439.128906 682.042969 438.777344 681.511719 438.246094 C 680.273438 437.183594 679.214844 437.363281 677.976562 438.421875 C 676.738281 439.484375 677.269531 440.367188 678.328125 441.25 C 678.683594 441.605469 678.859375 442.132812 678.683594 442.488281 C 678.328125 443.195312 676.738281 442.132812 676.914062 443.371094 C 677.089844 444.253906 678.328125 443.902344 678.859375 444.433594 C 679.566406 445.140625 679.921875 446.023438 679.742188 447.082031 C 677.796875 447.789062 675.675781 447.261719 673.910156 447.261719 C 672.671875 448.675781 674.617188 449.558594 673.910156 450.617188 C 673.023438 452.03125 673.023438 453.445312 673.554688 454.152344 C 671.609375 455.039062 670.550781 452.386719 668.074219 453.625 C 664.359375 455.566406 662.769531 458.394531 661.707031 461.929688 C 661.53125 462.816406 662.414062 464.050781 660.824219 464.230469 C 659.410156 464.40625 659.585938 464.9375 660.117188 465.644531 C 660.648438 466.527344 661.355469 466.527344 662.238281 466.171875 C 663.476562 465.644531 663.832031 464.582031 663.476562 463.34375 C 662.945312 460.871094 664.714844 460.515625 666.484375 460.695312 C 668.78125 460.871094 670.902344 461.578125 673.203125 461.578125 C 675.5 461.753906 677.269531 461.046875 676.207031 464.757812 C 675.675781 466.527344 677.621094 469 679.035156 471.121094 C 680.628906 473.597656 679.214844 475.894531 676.207031 475.71875 C 675.5 475.71875 674.617188 475.1875 673.910156 475.011719 C 673.023438 474.835938 671.964844 475.1875 672.316406 476.25 C 673.378906 478.546875 671.078125 479.785156 670.550781 481.375 C 672.496094 484.378906 676.207031 484.734375 678.507812 487.207031 C 678.859375 487.5625 679.742188 487.738281 680.273438 487.03125 C 680.628906 486.324219 680.097656 485.96875 679.566406 485.617188 C 675.5 482.964844 675.5 482.964844 679.390625 479.960938 C 680.097656 479.429688 680.628906 478.898438 681.160156 478.371094 C 682.925781 476.957031 684.519531 475.542969 686.460938 478.191406 C 686.992188 478.898438 687.699219 478.898438 688.585938 478.371094 C 690 477.484375 690.351562 479.078125 691.058594 479.605469 C 689.820312 480.3125 688.761719 481.199219 687.347656 481.726562 C 686.285156 482.082031 685.226562 482.433594 684.164062 481.375 C 683.457031 480.492188 682.574219 479.253906 681.511719 480.492188 C 680.449219 481.726562 679.035156 483.496094 680.449219 484.734375 C 682.394531 486.5 682.042969 487.738281 680.628906 489.503906 C 680.273438 490.035156 680.449219 491.097656 681.335938 491.449219 C 682.042969 491.804688 682.574219 491.273438 683.101562 490.917969 C 683.988281 490.210938 683.632812 489.152344 684.164062 488.269531 C 684.695312 487.5625 685.578125 487.207031 686.285156 487.738281 C 687.167969 488.269531 686.640625 489.152344 686.285156 489.859375 C 685.753906 490.917969 684.164062 490.742188 683.808594 491.980469 C 683.457031 493.042969 682.925781 494.457031 684.519531 494.632812 C 686.816406 494.808594 686.816406 496.046875 686.992188 497.8125 C 687.167969 500.464844 688.585938 502.234375 691.414062 502.761719 C 693.003906 502.941406 694.417969 503.648438 695.65625 504.882812 C 696.71875 505.945312 697.777344 506.652344 698.132812 508.242188 C 698.839844 510.71875 702.199219 514.074219 705.027344 515.667969 C 705.558594 516.019531 705.558594 516.375 705.558594 516.726562 C 705.382812 519.910156 707.503906 521.324219 710.332031 522.03125 C 712.277344 522.558594 713.867188 523.265625 713.691406 525.742188 C 713.691406 526.449219 714.398438 527.507812 714.929688 527.6875 C 717.933594 528.394531 718.820312 530.867188 720.410156 533.164062 C 721.648438 535.109375 724.125 536.171875 723.59375 539 C 723.59375 539.527344 724.125 540.414062 724.65625 540.589844 C 727.660156 540.941406 729.25 543.769531 732.082031 544.476562 C 734.027344 545.007812 736.679688 545.890625 735.96875 549.074219 C 735.792969 549.957031 736.855469 550.132812 737.5625 550.488281 C 740.214844 551.902344 743.75 552.785156 744.8125 555.4375 C 746.757812 560.738281 751.53125 562.859375 755.066406 566.21875 C 757.542969 568.515625 760.015625 571.167969 763.375 572.757812 C 764.4375 573.289062 764.4375 574.527344 764.792969 575.765625 C 765.5 579.828125 765.675781 580.007812 770.09375 580.183594 C 770.980469 580.183594 771.863281 580.007812 772.039062 581.066406 C 772.570312 583.1875 773.808594 584.425781 776.105469 584.601562 C 776.992188 584.601562 777.523438 585.484375 777.34375 586.371094 C 776.816406 589.019531 778.40625 589.726562 780.351562 590.433594 C 784.949219 591.671875 787.777344 595.207031 790.429688 598.917969 C 790.960938 599.804688 790.78125 600.511719 790.429688 601.21875 C 790.074219 601.75 789.191406 601.925781 788.660156 601.394531 C 787.421875 599.625 785.832031 600.15625 784.242188 600.6875 C 783.003906 601.039062 781.941406 600.6875 781.410156 599.625 C 780.175781 596.976562 777.699219 596.976562 775.398438 596.621094 C 772.925781 596.269531 770.449219 596.621094 768.152344 596.089844 C 766.914062 595.914062 766.207031 594.855469 765.851562 596.796875 C 765.675781 597.503906 765.5 598.566406 764.4375 598.390625 C 763.375 598.210938 763.375 597.328125 763.199219 596.621094 C 763.023438 595.738281 762.667969 595.03125 761.609375 595.382812 C 760.722656 595.738281 759.132812 595.207031 758.957031 596.976562 C 758.78125 599.273438 757.71875 599.097656 755.949219 598.210938 C 753.652344 596.976562 751 596.445312 748.171875 596.796875 C 746.933594 596.976562 744.8125 597.152344 744.457031 596.445312 C 742.335938 592.910156 739.328125 594.5 736.679688 594.675781 C 735.96875 594.675781 735.085938 595.207031 734.554688 594.324219 C 732.257812 590.964844 730.488281 593.261719 728.722656 595.03125 C 726.070312 597.683594 724.125 597.152344 723.238281 593.441406 C 723.0625 592.910156 723.238281 592.734375 722.53125 592.910156 C 719.703125 593.617188 716.519531 592.554688 714.046875 595.03125 C 713.691406 595.5625 712.984375 595.738281 712.453125 596.089844 C 711.570312 596.445312 711.570312 596.445312 711.570312 595.03125 C 711.394531 593.085938 708.917969 594.148438 708.386719 592.734375 C 708.386719 592.734375 707.855469 592.734375 707.679688 592.734375 C 707.148438 593.617188 708.386719 595.207031 706.441406 595.5625 C 705.027344 594.5 705.382812 592.027344 702.730469 591.671875 C 702.550781 593.441406 701.136719 594.324219 699.722656 595.382812 C 696.1875 594.675781 693.179688 591.671875 689.113281 593.085938 C 686.816406 590.964844 684.164062 593.441406 681.6875 592.554688 C 678.507812 591.320312 674.792969 594.324219 671.785156 591.671875 C 671.609375 591.496094 670.726562 591.847656 670.371094 592.027344 C 668.78125 593.261719 665.773438 591.140625 664.714844 594.148438 C 664.539062 594.5 663.832031 594.324219 663.476562 593.96875 C 662.0625 592.734375 660.292969 593.261719 658.878906 593.617188 C 657.289062 593.96875 655.875 593.617188 654.28125 592.910156 C 651.984375 591.847656 648.800781 590.613281 646.679688 591.847656 C 644.203125 593.261719 641.730469 593.261719 639.429688 593.96875 C 638.722656 594.148438 637.839844 593.441406 637.132812 594.324219 C 634.832031 597.683594 632.535156 596.089844 630.234375 594.5 C 628.289062 595.738281 626.875 594.324219 625.285156 593.441406 C 623.339844 592.378906 621.21875 592.910156 619.273438 593.792969 C 617.683594 594.5 618.917969 595.738281 618.742188 596.796875 C 618.742188 596.976562 618.390625 597.152344 618.035156 597.503906 C 617.328125 596.976562 616.621094 596.269531 615.914062 595.738281 C 614.324219 596.269531 614.324219 598.210938 612.730469 598.917969 C 611.847656 594.148438 609.019531 593.085938 605.660156 596.269531 C 603.890625 597.859375 601.238281 595.5625 600.175781 598.210938 C 598.941406 596.089844 596.109375 598.742188 594.695312 596.621094 C 594.34375 596.089844 593.28125 596.089844 592.398438 596.445312 C 589.039062 597.859375 585.148438 598.035156 581.613281 599.273438 C 579.136719 600.15625 575.777344 601.039062 573.300781 599.273438 C 571.355469 597.859375 569.589844 598.917969 569.058594 599.804688 C 567.289062 602.984375 564.636719 601.746094 562.339844 601.570312 C 561.632812 601.570312 560.21875 600.511719 560.21875 601.21875 C 559.863281 604.046875 557.742188 602.277344 556.679688 602.808594 C 555.621094 603.339844 554.914062 602.101562 554.027344 601.925781 C 552.261719 601.746094 550.316406 599.804688 548.546875 602.632812 C 546.601562 605.460938 545.71875 599.980469 543.417969 601.570312 C 541.828125 602.632812 539.882812 602.808594 538.117188 603.164062 C 536.347656 603.515625 533.871094 603.164062 532.8125 604.578125 C 530.335938 607.757812 526.976562 607.582031 523.617188 607.933594 C 522.378906 607.933594 521.496094 607.757812 520.789062 609.171875 C 519.902344 610.941406 519.195312 610.234375 518.488281 608.996094 C 517.605469 607.582031 516.542969 607.757812 516.015625 609.171875 C 515.128906 611.292969 513.539062 610.941406 511.769531 611.46875 C 509.824219 612 508.410156 612.355469 506.640625 610.761719 C 505.050781 609.171875 497.625 609.703125 495.855469 610.941406 C 494.265625 612.175781 496.742188 614.652344 494.972656 615.183594 C 493.382812 615.710938 491.789062 615.535156 492.320312 618.011719 C 492.496094 618.71875 492.320312 619.601562 490.90625 619.777344 C 490.730469 618.1875 490.550781 616.597656 490.199219 615.003906 C 489.667969 612.882812 488.785156 612.355469 486.839844 613.769531 C 485.777344 614.652344 485.425781 614.652344 484.539062 613.945312 C 483.832031 613.238281 482.949219 612.355469 482.066406 612.707031 C 478.175781 613.945312 474.109375 614.296875 470.75 616.417969 C 468.980469 617.480469 465.976562 618.011719 465.445312 619.425781 C 464.03125 623.136719 460.492188 623.667969 458.019531 625.609375 C 459.257812 622.605469 456.425781 621.546875 455.011719 619.953125 C 454.480469 619.425781 453.066406 619.953125 453.597656 621.015625 C 454.480469 623.3125 453.421875 623.3125 451.652344 624.019531 C 448.648438 625.257812 447.234375 623.488281 445.464844 621.898438 C 444.933594 623.136719 444.402344 624.195312 443.695312 625.433594 C 443.34375 625.964844 442.105469 625.964844 442.105469 625.433594 C 442.105469 621.898438 439.808594 623.667969 438.746094 624.195312 C 436.625 625.433594 434.679688 626.140625 432.027344 625.964844 C 428.492188 625.789062 427.253906 628.617188 428.492188 631.972656 C 428.667969 632.503906 429.199219 633.035156 428.667969 633.566406 C 427.960938 633.742188 427.605469 633.386719 427.253906 633.035156 C 426.191406 631.621094 425.132812 631.621094 424.246094 633.035156 C 423.363281 634.625 423.363281 635.863281 425.660156 635.863281 C 426.367188 635.863281 426.898438 636.039062 426.546875 637.101562 C 426.191406 638.160156 426.015625 639.222656 425.660156 640.28125 C 423.894531 640.636719 422.832031 639.574219 421.59375 639.222656 C 422.125 637.984375 423.894531 637.628906 423.1875 636.214844 C 422.300781 634.625 417.882812 634.09375 416.996094 635.6875 C 415.40625 638.335938 413.636719 637.984375 411.339844 637.101562 C 410.457031 636.746094 409.042969 635.863281 408.6875 636.746094 C 407.449219 639.75 402.675781 639.929688 402.851562 643.816406 C 403.382812 644.171875 403.207031 644.523438 403.207031 645.054688 C 402.851562 647 403.382812 649.121094 399.847656 647.707031 C 397.902344 646.820312 395.601562 648.589844 393.835938 650.003906 C 392.421875 651.242188 394.894531 653.183594 392.949219 653.714844 C 391.535156 654.070312 390.476562 654.421875 389.238281 655.304688 C 387.824219 656.367188 386.410156 657.25 385.878906 659.019531 C 385.523438 660.078125 384.640625 661.140625 383.578125 662.023438 C 381.988281 663.261719 380.21875 665.027344 380.574219 667.148438 C 380.925781 669.269531 385.171875 668.917969 384.464844 672.097656 C 384.464844 672.097656 384.640625 672.273438 384.816406 672.273438 C 385.523438 672.273438 386.054688 672.273438 386.761719 671.921875 C 388.53125 671.039062 390.296875 670.152344 392.066406 669.269531 C 393.128906 668.738281 394.1875 668.386719 395.425781 668.5625 C 396.664062 668.738281 395.957031 670.859375 397.546875 670.683594 C 398.433594 669.269531 398.253906 666.796875 401.085938 668.03125 C 403.03125 668.917969 402.851562 665.027344 404.265625 666.265625 C 406.035156 667.855469 407.449219 666.617188 409.042969 666.617188 C 410.632812 666.617188 412.222656 666.089844 413.285156 667.503906 C 413.285156 669.445312 410.101562 668.917969 410.808594 671.214844 C 411.515625 671.566406 412.222656 671.214844 412.753906 670.859375 C 413.992188 670.152344 416.996094 671.390625 415.9375 668.03125 C 415.9375 667.855469 416.644531 667.148438 416.996094 667.148438 C 420.003906 667.324219 421.242188 664.496094 423.714844 663.613281 C 425.132812 663.082031 425.839844 661.140625 427.605469 661.140625 C 428.492188 661.667969 427.785156 662.199219 427.785156 662.730469 C 427.785156 663.613281 427.785156 664.851562 428.84375 665.382812 C 430.257812 666.089844 430.964844 664.851562 431.671875 664.144531 C 433.085938 662.554688 434.324219 660.960938 435.5625 659.371094 C 437.683594 660.433594 435.738281 662.199219 436.269531 663.613281 C 439.984375 661.667969 440.160156 661.667969 442.105469 662.90625 C 444.582031 664.496094 444.582031 664.496094 446.878906 661.492188 C 445.464844 661.492188 443.875 661.667969 443.695312 659.902344 C 443.519531 658.664062 444.933594 658.3125 445.820312 658.132812 C 448.46875 657.957031 447.410156 656.191406 447.761719 654.777344 C 447.941406 653.890625 448.648438 652.832031 449.707031 653.183594 C 450.414062 653.539062 451.476562 654.421875 450.769531 655.484375 C 449.707031 657.074219 449.707031 658.3125 450.769531 659.902344 C 452.359375 659.019531 452.007812 656.71875 453.773438 656.191406 C 456.78125 655.484375 455.898438 658.3125 456.957031 659.546875 C 457.488281 660.078125 458.019531 660.433594 458.550781 659.902344 C 458.902344 659.546875 459.257812 659.019531 459.078125 658.664062 C 458.726562 657.957031 458.195312 657.25 457.84375 656.71875 C 456.957031 655.304688 457.488281 654.246094 458.371094 653.183594 C 459.257812 652.300781 460.140625 651.769531 461.378906 652.300781 C 463.144531 653.183594 461.910156 654.070312 461.554688 655.128906 C 461.554688 655.304688 461.730469 655.835938 461.910156 655.835938 C 462.4375 655.835938 462.96875 656.011719 463.324219 655.660156 C 464.03125 654.777344 464.5625 653.714844 465.269531 652.832031 C 468.273438 649.648438 470.042969 649.472656 473.578125 651.949219 C 475.167969 653.183594 476.9375 653.363281 478.527344 654.070312 C 479.058594 654.246094 480.121094 653.183594 481.535156 653.714844 C 484.539062 654.953125 484.71875 654.597656 486.664062 651.59375 C 487.371094 650.535156 488.785156 650.003906 489.492188 651.242188 C 490.730469 653.007812 491.4375 652.476562 491.96875 650.886719 C 492.675781 648.941406 494.089844 649.121094 495.503906 649.472656 C 496.742188 649.648438 498.15625 650.003906 499.214844 650.886719 C 501.339844 652.476562 502.929688 651.417969 503.992188 649.472656 C 504.699219 648.058594 505.40625 646.644531 506.640625 645.40625 C 508.765625 647.882812 513.007812 646.820312 514.421875 650.355469 C 514.597656 650.886719 516.542969 650.003906 516.191406 649.648438 C 513.714844 646.820312 517.429688 647.527344 517.957031 646.46875 C 520.433594 647.882812 523.085938 647.707031 525.207031 646.113281 C 526.621094 645.054688 528.566406 645.9375 529.628906 644.523438 C 532.105469 641.34375 531.75 645.585938 532.988281 645.761719 C 533.519531 645.761719 533.871094 645.585938 534.402344 645.585938 C 536.347656 645.40625 538.117188 644.878906 539.707031 643.285156 C 540.058594 642.757812 540.945312 642.757812 541.476562 643.109375 C 542.183594 643.640625 541.828125 644.347656 541.476562 644.878906 C 540.769531 646.292969 539.707031 647.175781 538.46875 648.058594 C 537.9375 648.589844 537.230469 649.296875 537.9375 650.179688 C 538.46875 650.710938 539.175781 650.355469 539.707031 650.003906 C 541.652344 648.765625 544.128906 647.882812 545.363281 646.292969 C 548.722656 641.519531 554.558594 644.878906 558.09375 641.695312 C 560.039062 644.171875 560.039062 641.871094 560.925781 640.8125 C 561.453125 639.929688 561.277344 638.335938 563.398438 638.515625 C 562.164062 642.050781 566.757812 640.988281 567.289062 643.640625 C 567.464844 644.699219 568.175781 645.9375 569.589844 645.585938 C 570.472656 645.40625 570.824219 644.347656 571.179688 643.285156 C 572.59375 639.222656 573.125 638.867188 577.015625 640.105469 C 581.433594 641.519531 581.433594 641.519531 581.964844 636.921875 C 582.140625 636.214844 581.613281 634.980469 582.847656 634.980469 C 583.910156 634.980469 584.265625 635.863281 584.265625 636.921875 C 584.265625 639.222656 585.5 639.929688 586.917969 638.691406 C 588.152344 637.628906 589.214844 636.394531 591.160156 636.039062 C 591.335938 637.808594 588.152344 639.042969 590.628906 640.28125 C 591.867188 640.988281 593.636719 639.574219 594.695312 638.160156 C 595.402344 637.101562 593.457031 636.214844 594.519531 634.980469 C 596.464844 635.6875 598.230469 637.984375 600.53125 634.980469 C 602.300781 632.679688 602.828125 632.859375 603.535156 635.6875 C 603.714844 636.394531 603.890625 637.101562 604.066406 637.984375 C 604.066406 637.984375 604.066406 637.984375 604.066406 638.160156 C 604.066406 638.160156 604.066406 638.160156 604.242188 638.160156 L 604.242188 637.984375 C 604.597656 638.335938 604.953125 638.867188 605.304688 638.867188 C 608.664062 639.222656 609.726562 634.09375 613.4375 635.332031 C 613.4375 634.980469 613.4375 634.625 613.4375 634.449219 C 613.261719 633.742188 613.261719 633.035156 614.144531 632.859375 C 616.621094 632.328125 619.273438 631.621094 621.75 631.621094 C 623.871094 631.621094 624.578125 634.09375 625.816406 635.332031 C 625.992188 635.507812 626.347656 635.332031 626.699219 635.332031 C 627.761719 631.445312 627.9375 631.089844 631.296875 632.503906 C 633.773438 633.386719 635.1875 631.796875 636.777344 631.089844 C 638.191406 631.796875 638.015625 632.859375 638.015625 633.742188 C 638.191406 634.800781 638.722656 635.15625 639.605469 635.15625 C 640.667969 635.332031 644.734375 632.859375 644.558594 631.972656 C 644.378906 630.738281 644.378906 630.03125 645.617188 629.851562 C 646.679688 629.675781 647.386719 630.207031 647.917969 631.089844 C 649.332031 633.386719 651.984375 633.917969 654.28125 634.800781 C 654.8125 632.679688 651.984375 633.210938 652.515625 631.621094 C 654.636719 630.382812 654.636719 630.382812 658.171875 631.445312 C 658.527344 631.445312 658.878906 631.265625 659.054688 631.265625 C 661.179688 631.089844 663.300781 630.914062 665.246094 630.738281 C 670.726562 630.207031 672.140625 630.382812 677.089844 633.566406 C 677.621094 633.917969 678.328125 634.09375 678.859375 633.742188 C 682.75 630.558594 687.347656 632.679688 691.589844 631.972656 C 692.828125 631.796875 694.597656 630.738281 695.65625 632.152344 C 697.070312 634.09375 697.777344 632.679688 699.015625 632.152344 C 700.429688 631.445312 701.667969 628.96875 702.730469 630.03125 C 705.558594 632.503906 708.917969 630.738281 711.925781 632.328125 C 713.339844 633.035156 715.460938 632.503906 717.050781 632.152344 C 718.289062 631.972656 717.050781 629.851562 718.996094 629.324219 C 719.703125 631.089844 720.765625 632.859375 723.238281 632.152344 C 723.769531 631.972656 724.476562 632.503906 725.007812 632.859375 C 728.367188 634.980469 731.902344 634.625 735.441406 633.386719 C 736.5 633.035156 737.738281 632.328125 738.621094 633.210938 C 740.039062 634.449219 740.746094 633.742188 741.980469 633.035156 C 745.164062 631.265625 745.164062 631.445312 747.464844 634.800781 C 747.640625 635.15625 748.171875 635.507812 748.523438 635.507812 C 754.183594 635.507812 759.308594 637.984375 764.96875 637.628906 C 768.503906 637.277344 772.570312 637.628906 775.929688 638.867188 C 778.9375 639.929688 781.058594 639.929688 783.535156 637.628906 C 784.949219 640.636719 787.070312 642.050781 790.074219 641.519531 C 790.429688 641.519531 790.78125 641.695312 790.960938 641.695312 C 792.199219 642.050781 793.082031 642.757812 792.90625 644.171875 C 792.726562 645.230469 792.019531 646.113281 790.960938 646.113281 C 787.246094 645.761719 786.363281 648.234375 785.65625 651.0625 C 785.480469 651.949219 785.65625 653.539062 784.0625 653.539062 C 780.351562 653.539062 778.40625 655.660156 776.816406 659.019531 C 774.691406 663.261719 769.742188 664.851562 766.914062 668.738281 C 766.734375 668.917969 766.207031 668.738281 765.675781 668.738281 C 764.4375 669.625 766.558594 673.335938 762.847656 671.921875 C 762.316406 671.746094 762.140625 672.804688 762.492188 673.335938 C 762.667969 673.6875 763.023438 674.394531 762.316406 674.394531 C 761.433594 674.394531 760.546875 672.980469 759.664062 673.6875 C 758.074219 674.925781 760.546875 675.28125 760.546875 676.164062 C 760.546875 676.871094 759.839844 677.222656 759.308594 677.402344 C 758.78125 677.753906 757.71875 677.578125 758.074219 678.816406 C 758.601562 680.9375 757.1875 681.113281 755.773438 680.230469 C 753.652344 678.992188 752.0625 679.523438 751 681.644531 C 750.292969 683.058594 747.640625 683.765625 750.117188 685.886719 C 750.46875 686.238281 749.585938 686.945312 749.054688 687.121094 C 746.226562 688.183594 744.105469 689.949219 742.160156 692.070312 C 740.746094 693.484375 739.328125 695.253906 736.855469 695.785156 C 735.085938 696.136719 733.316406 697.90625 732.082031 699.496094 C 728.722656 703.914062 728.898438 704.09375 724.300781 706.390625 C 723.769531 706.742188 723.238281 707.097656 722.886719 707.628906 C 722.179688 709.042969 721.296875 710.101562 719.703125 710.457031 C 718.464844 710.808594 717.757812 711.691406 717.40625 712.753906 C 716.875 714.875 716.519531 716.996094 713.339844 715.933594 C 712.808594 715.757812 712.277344 716.996094 711.746094 717.527344 C 710.15625 718.941406 709.800781 721.589844 708.210938 722.476562 C 704.675781 724.242188 702.550781 726.71875 701.667969 730.605469 C 701.136719 732.726562 698.664062 732.195312 697.425781 733.257812 C 696.1875 734.140625 698.664062 736.792969 695.832031 737.5 C 695.125 737.675781 693.890625 738.207031 693.890625 738.738281 C 693.535156 741.917969 691.058594 743.6875 688.9375 745.808594 C 687.699219 747.042969 686.992188 748.8125 689.113281 749.695312 C 690.707031 750.402344 690.882812 750.933594 689.644531 751.816406 C 688.761719 752.523438 688.761719 753.585938 688.230469 754.292969 C 686.992188 755.882812 686.460938 757.828125 688.054688 759.242188 C 689.46875 760.65625 691.414062 759.417969 693.003906 759.0625 C 693.179688 759.0625 693.179688 758.886719 693.359375 758.710938 C 697.601562 755.351562 702.90625 753.761719 706.796875 750.050781 C 707.503906 749.34375 708.210938 748.8125 708.917969 749.519531 C 710.6875 751.109375 712.277344 750.226562 713.691406 749.164062 C 714.574219 748.636719 715.285156 748.636719 716.34375 748.8125 C 720.765625 749.871094 725.363281 750.757812 730.3125 749.34375 C 730.3125 750.226562 730.136719 750.757812 730.136719 751.464844 C 730.3125 755.527344 730.3125 755.351562 734.554688 755.351562 C 735.96875 755.351562 737.738281 753.761719 739.152344 755.882812 C 740.566406 758.179688 742.691406 756.058594 744.457031 756.414062 C 744.8125 756.414062 745.339844 756.941406 745.519531 757.296875 C 746.050781 761.183594 749.054688 758.003906 750.824219 759.0625 C 751.351562 759.417969 753.652344 758.710938 753.828125 756.234375 C 754.003906 755 754.710938 751.464844 757.1875 755.175781 C 757.542969 755.527344 758.25 755.882812 758.425781 755.351562 C 758.957031 752.878906 761.609375 753.40625 763.023438 752.347656 C 764.4375 751.109375 765.320312 750.226562 764.085938 748.28125 C 763.199219 746.867188 764.792969 743.15625 766.207031 743.6875 C 770.09375 744.921875 770.804688 742.09375 772.039062 739.972656 C 772.570312 738.914062 773.808594 739.445312 774.691406 739.089844 C 777.875 737.851562 780.175781 736.085938 782.296875 732.902344 C 783.710938 730.78125 781.058594 730.074219 782.117188 728.660156 C 782.472656 728.308594 782.296875 727.777344 782.472656 727.070312 C 783.179688 727.425781 783.710938 727.601562 784.242188 727.777344 C 787.777344 728.839844 787.953125 728.484375 788.484375 725.125 C 788.660156 723.890625 786.894531 722.476562 788.839844 721.0625 C 790.605469 722.652344 792.199219 724.242188 793.789062 725.65625 C 796.792969 722.828125 797.324219 718.941406 798.386719 715.582031 C 799.976562 715.40625 799.976562 717.703125 801.746094 716.289062 C 799.976562 714.167969 800.507812 711.871094 801.570312 709.394531 C 802.277344 707.804688 802.628906 706.566406 805.105469 707.980469 C 807.582031 709.394531 810.410156 707.449219 810.941406 704.621094 C 811.292969 703.03125 812 702.675781 813.59375 702.675781 C 815.359375 702.675781 816.597656 702.148438 815.007812 700.027344 C 814.476562 699.320312 815.007812 698.789062 815.535156 698.433594 C 816.246094 697.90625 816.597656 698.433594 816.953125 698.964844 C 818.011719 700.910156 819.074219 700.027344 819.425781 698.613281 C 819.78125 697.199219 819.957031 695.429688 819.074219 694.015625 C 818.71875 693.484375 817.480469 692.957031 818.367188 692.070312 C 819.074219 691.363281 820.132812 691.363281 821.019531 692.070312 C 821.726562 692.601562 822.609375 693.308594 823.316406 694.015625 C 824.554688 695.253906 825.261719 694.546875 825.96875 693.484375 C 826.675781 692.601562 826.324219 691.71875 825.96875 690.835938 C 827.738281 691.542969 829.503906 692.425781 831.449219 691.363281 C 831.449219 689.421875 828.265625 689.597656 829.328125 687.828125 C 830.210938 686.238281 832.15625 685.355469 833.21875 683.765625 C 835.339844 686.59375 835.871094 683.234375 837.109375 682.703125 C 838.167969 683.941406 836.222656 685.355469 837.460938 686.945312 C 842.234375 683.941406 838.167969 680.40625 838.347656 677.046875 C 840.46875 678.636719 841.707031 681.996094 845.59375 680.582031 C 843.828125 679.523438 842.765625 678.460938 844.710938 677.222656 C 845.949219 676.339844 847.011719 675.457031 846.65625 673.867188 C 846.65625 673.867188 846.65625 673.867188 846.832031 673.867188 C 847.539062 674.042969 848.246094 673.6875 848.777344 673.335938 C 850.015625 672.628906 848.777344 670.332031 850.898438 669.976562 C 851.429688 671.921875 849.664062 672.453125 848.777344 673.335938 C 850.191406 673.867188 851.960938 674.21875 852.84375 673.160156 C 855.496094 669.976562 859.5625 669.445312 863.101562 668.210938 C 864.335938 667.855469 864.691406 667.503906 864.335938 666.441406 C 863.984375 665.382812 863.808594 663.96875 865.046875 663.4375 C 866.28125 662.90625 866.460938 664.320312 866.988281 665.027344 C 867.875 666.441406 869.464844 665.734375 870.527344 665.203125 C 871.585938 664.851562 871.234375 663.613281 870.878906 662.730469 C 871.058594 662.023438 871.410156 661.316406 871.941406 660.785156 C 874.945312 658.132812 879.191406 657.425781 882.019531 654.597656 C 883.964844 652.65625 885.730469 653.007812 887.675781 654.421875 C 888.738281 655.304688 889.800781 656.367188 891.035156 655.304688 C 891.921875 654.421875 892.980469 652.476562 892.097656 651.59375 C 890.859375 650.003906 891.566406 649.648438 892.804688 649.296875 C 894.394531 648.941406 894.75 650.003906 894.925781 651.242188 C 895.101562 652.476562 894.574219 653.890625 895.457031 654.953125 C 896.695312 654.777344 897.402344 654.070312 898.640625 653.714844 C 901.113281 653.007812 903.414062 649.472656 902.351562 648.414062 C 900.40625 646.644531 901.292969 646.292969 903.058594 645.585938 C 905.710938 644.523438 908.542969 643.285156 906.066406 639.574219 C 905.003906 639.75 905.003906 639.222656 905.183594 639.042969 Z M 680.804688 468.824219 C 680.273438 469.179688 679.566406 469 679.214844 468.472656 C 679.035156 468.117188 679.035156 467.585938 679.390625 467.234375 C 680.097656 466.878906 680.628906 467.058594 680.980469 467.585938 C 681.335938 467.941406 681.335938 468.472656 680.804688 468.824219 Z M 694.949219 484.027344 C 694.949219 484.203125 695.125 484.203125 695.125 484.378906 C 695.304688 485.96875 694.949219 487.207031 693.179688 487.738281 C 693.003906 487.738281 692.472656 487.5625 692.472656 487.382812 C 691.945312 485.617188 693.710938 485.441406 694.417969 484.554688 C 694.597656 484.378906 694.773438 484.203125 694.949219 484.027344 Z M 693.179688 480.3125 C 693.535156 481.550781 694.066406 482.964844 694.949219 484.027344 C 692.828125 483.496094 692.121094 481.550781 691.238281 480.136719 C 691.945312 479.253906 692.652344 478.898438 693.179688 480.3125 Z M 689.644531 486.855469 C 689.46875 487.03125 689.113281 487.382812 688.9375 487.207031 C 687.878906 486.855469 688.40625 485.96875 688.230469 485.261719 C 688.230469 484.910156 688.585938 484.734375 688.9375 484.910156 C 689.644531 485.441406 689.820312 486.148438 689.644531 486.855469 Z M 693.535156 499.40625 C 692.296875 498.699219 690.707031 498.34375 690.351562 496.753906 C 690.351562 496.578125 690.53125 496.046875 690.707031 495.871094 C 692.472656 495.339844 693.179688 496.929688 694.242188 497.636719 C 694.597656 497.8125 695.125 497.8125 695.304688 498.699219 C 694.773438 499.226562 694.066406 499.757812 693.535156 499.40625 Z M 697.601562 490.035156 C 697.25 490.390625 696.1875 490.210938 695.832031 489.859375 C 694.242188 488.445312 695.65625 487.382812 696.894531 486.5 C 696.894531 487.738281 699.546875 488.445312 697.601562 490.035156 Z M 704.675781 502.410156 C 708.386719 499.40625 708.5625 499.40625 710.863281 502.585938 C 709.09375 501.878906 707.148438 502.054688 704.675781 502.410156 Z M 713.339844 506.296875 C 712.808594 506.296875 712.453125 506.121094 712.277344 505.769531 C 712.101562 505.589844 712.277344 505.0625 712.453125 505.0625 C 712.984375 504.882812 713.339844 505.0625 713.515625 505.589844 C 713.691406 505.769531 713.515625 506.121094 713.339844 506.296875 Z M 729.25 535.109375 C 728.722656 535.640625 728.015625 536.171875 727.128906 535.816406 C 726.597656 535.464844 726.597656 534.757812 727.128906 534.226562 C 727.660156 533.519531 728.367188 533.519531 729.074219 534.050781 C 729.605469 534.226562 729.605469 534.578125 729.25 535.109375 Z M 731.019531 518.140625 C 731.195312 517.789062 731.550781 517.433594 732.257812 517.789062 C 732.789062 518.140625 732.609375 518.671875 732.433594 519.378906 C 732.257812 519.910156 731.902344 520.085938 731.375 519.730469 C 730.84375 519.378906 730.667969 518.671875 731.019531 518.140625 Z M 735.085938 538.292969 C 734.203125 539.175781 732.964844 539 732.082031 538.292969 C 731.550781 537.9375 731.550781 537.230469 731.726562 536.523438 C 732.789062 535.285156 733.671875 536.347656 734.734375 536.699219 C 735.441406 537.054688 735.792969 537.761719 735.085938 538.292969 Z M 736.324219 530.691406 C 737.738281 530.867188 739.152344 530.867188 740.921875 531.042969 C 738.621094 534.578125 738.445312 534.402344 736.324219 530.691406 Z M 740.566406 535.464844 C 740.214844 535.285156 740.390625 534.757812 740.566406 534.578125 C 740.921875 534.402344 741.453125 534.402344 741.980469 534.226562 C 741.980469 534.578125 741.804688 534.757812 741.804688 535.109375 C 741.453125 535.640625 741.097656 535.816406 740.566406 535.464844 Z M 743.398438 550.132812 C 742.867188 549.78125 742.867188 549.074219 743.042969 548.542969 C 743.398438 548.011719 743.925781 548.367188 744.105469 548.71875 C 744.28125 549.074219 744.632812 549.605469 744.632812 549.957031 C 744.457031 550.132812 743.925781 550.3125 743.398438 550.132812 Z M 743.925781 542.355469 C 743.398438 540.414062 740.039062 540.058594 741.628906 537.585938 C 743.398438 534.757812 744.632812 538.292969 746.578125 537.9375 C 745.519531 539.527344 744.8125 540.765625 743.925781 542.355469 Z M 765.320312 569.046875 C 764.96875 568.871094 764.613281 568.339844 764.261719 567.988281 C 765.5 567.101562 766.382812 566.925781 767.089844 568.339844 C 767.621094 569.402344 766.558594 569.929688 765.320312 569.046875 Z M 767.972656 561.09375 C 766.734375 561.269531 766.558594 560.386719 766.734375 559.679688 C 766.914062 558.265625 766.734375 556.851562 768.328125 555.789062 C 769.210938 557.203125 768.679688 558.617188 769.210938 560.03125 C 769.386719 560.738281 768.503906 560.917969 767.972656 561.09375 Z M 772.394531 575.410156 C 771.863281 576.292969 771.15625 576.292969 770.449219 575.765625 C 769.917969 575.410156 769.566406 574.878906 770.097656 574.171875 C 770.625 573.644531 771.332031 573.289062 772.039062 573.820312 C 772.570312 574.171875 772.570312 574.878906 772.394531 575.410156 Z M 778.40625 584.25 C 778.757812 581.421875 778.757812 581.421875 780.882812 580.359375 C 779.996094 581.597656 779.289062 582.835938 778.40625 584.25 Z M 783.355469 574.171875 C 783.179688 574.703125 782.472656 575.410156 781.941406 574.878906 C 781.058594 574.171875 780.882812 572.9375 781.589844 571.875 C 781.765625 571.523438 782.296875 571.34375 783.179688 571.875 C 783.886719 572.40625 783.710938 573.289062 783.355469 574.171875 Z M 789.546875 574.351562 C 789.367188 574.527344 789.015625 574.703125 788.839844 574.703125 C 788.308594 574.527344 788.128906 574.171875 788.484375 573.644531 C 788.660156 573.289062 789.191406 572.9375 789.546875 573.289062 C 790.074219 573.464844 789.898438 573.996094 789.546875 574.351562 Z M 388.882812 665.203125 C 388.175781 665.382812 387.292969 665.382812 386.585938 664.675781 C 386.230469 664.320312 386.410156 664.144531 386.585938 663.96875 C 387.46875 663.613281 388.175781 663.789062 388.882812 664.320312 C 389.414062 664.496094 389.414062 665.027344 388.882812 665.203125 Z M 404.972656 659.726562 C 404.621094 660.253906 404.089844 660.253906 403.914062 659.726562 C 403.738281 659.371094 403.382812 658.839844 403.558594 658.488281 C 403.738281 657.957031 404.265625 658.132812 404.445312 658.3125 C 404.796875 658.839844 405.152344 659.195312 404.972656 659.726562 Z M 410.101562 639.75 C 409.75 639.398438 409.570312 639.042969 410.277344 638.335938 C 410.457031 638.160156 410.984375 638.160156 411.339844 638.515625 C 411.871094 639.042969 412.222656 639.574219 411.515625 640.105469 C 410.984375 640.457031 410.457031 640.28125 410.101562 639.75 Z M 410.984375 664.675781 C 411.695312 662.199219 413.285156 662.199219 415.582031 662.554688 C 413.992188 663.789062 412.753906 664.320312 410.984375 664.675781 Z M 415.582031 647.175781 C 415.230469 647.351562 415.054688 647.527344 414.875 647.527344 C 414.34375 647.351562 414.34375 646.820312 414.699219 646.46875 C 414.875 646.292969 415.230469 646.113281 415.40625 646.113281 C 415.9375 646.292969 415.761719 646.644531 415.582031 647.175781 Z M 421.417969 642.226562 C 420.886719 642.933594 420.003906 642.578125 419.296875 642.402344 C 418.765625 642.226562 418.234375 641.871094 418.589844 640.988281 C 419.296875 640.457031 420.179688 639.75 421.066406 640.636719 C 421.417969 640.988281 421.949219 641.695312 421.417969 642.226562 Z M 422.480469 649.828125 C 422.832031 649.472656 423.363281 649.648438 423.714844 650.003906 C 424.246094 650.355469 423.894531 650.886719 423.539062 651.0625 C 423.363281 651.242188 423.007812 651.242188 422.65625 651.0625 C 422.300781 650.886719 422.300781 650.355469 422.480469 649.828125 Z M 423.714844 659.726562 C 423.363281 660.078125 422.832031 660.433594 422.480469 660.078125 C 421.949219 659.546875 422.125 658.839844 422.480469 658.3125 C 422.832031 657.957031 423.363281 657.78125 423.894531 658.132812 C 424.601562 658.664062 424.070312 659.195312 423.714844 659.726562 Z M 431.320312 659.546875 C 430.964844 659.371094 430.257812 659.195312 430.789062 658.664062 C 430.964844 658.488281 431.671875 658.839844 432.027344 659.019531 C 432.378906 659.195312 432.558594 659.371094 432.558594 659.726562 C 432.203125 660.078125 431.671875 659.726562 431.320312 659.546875 Z M 444.582031 628.96875 C 444.050781 629.851562 443.167969 629.5 442.636719 629.144531 C 442.105469 628.792969 442.28125 628.261719 442.636719 628.085938 C 443.167969 627.730469 443.695312 627.554688 444.402344 627.910156 C 444.757812 628.085938 444.757812 628.617188 444.582031 628.96875 Z M 455.542969 624.195312 C 455.367188 623.84375 455.71875 623.488281 456.074219 623.488281 C 457.132812 623.488281 457.664062 624.195312 457.84375 625.082031 C 457.132812 624.902344 455.898438 625.433594 455.542969 624.195312 Z M 469.335938 625.789062 C 468.804688 625.609375 468.273438 625.433594 466.859375 624.902344 C 468.980469 624.195312 470.042969 624.550781 471.28125 625.433594 C 470.574219 626.140625 470.042969 626.140625 469.335938 625.789062 Z M 477.644531 619.601562 C 476.9375 620.132812 476.054688 621.015625 475.347656 619.953125 C 474.816406 619.070312 474.992188 617.65625 476.40625 617.304688 C 477.113281 616.949219 478 616.066406 479.058594 617.125 C 479.589844 618.363281 478.351562 618.894531 477.644531 619.601562 Z M 495.328125 646.46875 C 495.148438 646.644531 494.796875 646.820312 494.621094 647 C 494.441406 646.644531 494.265625 646.113281 494.089844 645.761719 C 494.441406 645.761719 494.796875 645.761719 494.972656 645.761719 C 495.328125 645.761719 495.503906 646.113281 495.328125 646.46875 Z M 500.632812 649.472656 C 500.453125 650.179688 499.570312 650.003906 499.039062 649.648438 C 498.15625 649.121094 498.332031 648.234375 498.6875 647.527344 C 499.039062 646.644531 499.921875 646.820312 500.808594 646.820312 C 501.515625 647.707031 500.808594 648.589844 500.632812 649.472656 Z M 517.074219 646.113281 C 516.898438 645.9375 516.542969 645.761719 516.367188 645.585938 C 515.660156 645.054688 514.421875 644.878906 514.953125 643.640625 C 515.304688 642.757812 516.367188 643.464844 517.074219 643.640625 C 518.664062 644.699219 518.136719 645.40625 517.074219 646.113281 Z M 568.527344 641.164062 C 568.351562 641.695312 567.820312 641.519531 567.464844 641.34375 C 567.289062 641.164062 566.9375 640.636719 567.113281 640.636719 C 567.464844 640.28125 567.820312 640.105469 568.351562 640.457031 C 568.527344 640.636719 568.703125 640.988281 568.527344 641.164062 Z M 574.894531 604.046875 C 574.539062 604.398438 574.007812 604.398438 573.65625 604.046875 C 573.300781 603.691406 573.65625 603.164062 574.007812 602.808594 C 574.363281 602.457031 574.894531 602.632812 575.246094 602.984375 C 575.601562 603.515625 575.246094 603.871094 574.894531 604.046875 Z M 590.453125 600.15625 C 589.921875 600.6875 589.390625 600.863281 588.859375 600.332031 C 588.332031 599.980469 588.332031 599.273438 588.683594 598.742188 C 589.214844 598.210938 589.921875 598.210938 590.453125 598.566406 C 590.804688 598.917969 590.984375 599.625 590.453125 600.15625 Z M 609.019531 598.917969 C 608.839844 599.097656 608.132812 598.917969 607.78125 598.566406 C 607.425781 598.210938 607.25 597.859375 607.957031 597.328125 C 608.132812 597.152344 608.664062 597.152344 609.019531 597.328125 C 609.546875 597.859375 609.726562 598.566406 609.019531 598.917969 Z M 644.203125 598.566406 C 644.027344 598.742188 643.320312 598.566406 642.964844 598.390625 C 642.4375 598.035156 642.082031 597.328125 642.789062 596.796875 C 643.144531 596.445312 643.671875 596.445312 644.027344 597.152344 C 644.382812 597.328125 644.910156 598.035156 644.203125 598.566406 Z M 681.867188 596.976562 C 681.511719 597.503906 680.628906 597.683594 680.273438 597.152344 C 679.921875 596.621094 679.742188 595.914062 679.921875 595.382812 C 680.273438 594.855469 680.980469 594.855469 681.6875 595.207031 C 682.042969 595.738281 682.21875 596.445312 681.867188 596.976562 Z M 699.371094 598.210938 C 699.191406 598.210938 698.664062 598.035156 698.484375 597.859375 C 698.132812 597.152344 698.664062 596.796875 699.015625 596.269531 C 699.191406 595.914062 699.546875 595.5625 699.722656 595.382812 C 699.902344 595.738281 700.078125 596.089844 700.253906 596.445312 C 700.609375 597.328125 700.078125 597.859375 699.371094 598.210938 Z M 711.746094 627.203125 C 711.394531 627.730469 710.6875 627.730469 710.15625 627.378906 C 709.625 627.023438 708.917969 626.847656 709.273438 626.140625 C 709.449219 625.789062 710.507812 625.964844 711.039062 626.140625 C 711.570312 626.140625 711.925781 626.496094 711.746094 627.203125 Z M 774.515625 734.316406 C 775.398438 733.257812 775.929688 732.019531 777.875 732.375 C 777.167969 734.140625 776.109375 734.671875 774.515625 734.316406 Z M 786.363281 724.949219 C 785.65625 725.832031 784.59375 725.65625 783.710938 725.304688 C 783.179688 725.125 783.179688 724.417969 783.535156 724.066406 C 784.242188 723.359375 784.949219 722.652344 786.007812 723.183594 C 786.714844 723.710938 786.714844 724.417969 786.363281 724.949219 Z M 790.960938 706.917969 C 790.78125 706.742188 790.429688 706.390625 790.429688 706.210938 C 790.78125 705.683594 791.3125 705.503906 792.019531 705.683594 C 792.199219 705.859375 792.550781 706.210938 792.375 706.390625 C 792.375 707.097656 791.667969 707.097656 790.960938 706.917969 Z M 799.445312 591.320312 C 799.09375 591.671875 798.5625 591.671875 798.210938 591.320312 C 798.03125 591.140625 798.210938 590.789062 798.386719 590.433594 C 798.917969 590.082031 799.269531 590.082031 799.625 590.433594 C 799.625 590.789062 799.445312 591.140625 799.445312 591.320312 Z M 813.238281 597.328125 C 811.824219 598.566406 813.0625 600.15625 812 601.570312 C 811.46875 599.628906 811.46875 597.328125 808.464844 599.628906 C 805.457031 601.925781 806.164062 597.859375 804.929688 596.621094 C 807.050781 596.621094 809.171875 596.445312 811.292969 596.445312 C 812.175781 596.445312 812.355469 595.914062 812 595.207031 C 812.707031 595.5625 814.476562 596.089844 813.238281 597.328125 Z M 813.769531 595.207031 C 813.238281 595.207031 812.53125 595.03125 812 594.855469 C 812.53125 594.324219 812.886719 593.617188 813.59375 593.441406 C 814.300781 593.261719 814.828125 593.96875 815.007812 594.5 C 815.183594 595.5625 814.300781 595.207031 813.769531 595.207031 Z M 822.609375 691.71875 C 821.726562 688.183594 821.726562 688.007812 823.671875 687.300781 C 823.492188 688.535156 823.140625 689.773438 822.609375 691.71875 Z M 825.261719 691.1875 C 825.261719 689.597656 825.792969 688.007812 824.023438 687.121094 C 825.261719 685.53125 826.324219 685.53125 826.851562 687.652344 C 827.03125 689.066406 826.675781 690.480469 825.261719 691.1875 Z M 835.164062 682.527344 C 834.808594 682.171875 834.457031 681.820312 834.808594 681.289062 C 835.339844 680.757812 836.046875 680.9375 836.222656 681.644531 C 836.402344 681.996094 836.222656 682.527344 836.046875 682.878906 C 835.871094 682.878906 835.515625 682.878906 835.164062 682.527344 Z M 859.5625 665.734375 C 859.035156 665.910156 858.503906 665.910156 858.324219 665.382812 C 857.972656 663.613281 856.382812 662.730469 855.144531 661.492188 C 857.617188 661.140625 859.035156 662.375 860.09375 663.96875 C 860.449219 664.675781 860.269531 665.382812 859.5625 665.734375 Z M 868.757812 663.613281 C 867.695312 663.789062 866.988281 663.082031 866.460938 662.199219 C 866.28125 661.667969 866.636719 661.316406 866.988281 661.140625 C 868.226562 660.433594 868.757812 661.492188 869.289062 662.199219 C 869.640625 662.554688 869.640625 662.90625 869.996094 663.261719 C 869.464844 663.4375 869.113281 663.613281 868.757812 663.613281 Z M 670.371094 481.550781 C 667.71875 480.667969 666.484375 478.371094 664.890625 476.425781 C 663.832031 475.1875 664.890625 474.480469 665.953125 473.773438 C 667.191406 472.890625 667.191406 471.828125 665.953125 471.121094 C 664.714844 470.238281 663.476562 470.0625 662.945312 471.828125 C 662.59375 473.773438 661.707031 474.65625 659.941406 473.421875 C 658.171875 472.183594 659.234375 470.769531 660.117188 469.707031 C 662.0625 467.058594 665.421875 466.878906 668.25 465.644531 C 668.957031 465.289062 671.257812 466.527344 670.019531 467.410156 C 667.542969 469.53125 670.726562 471.476562 668.957031 473.242188 C 672.140625 473.597656 671.789062 468.117188 675.675781 470.238281 C 674.96875 472.007812 673.378906 472.714844 672.316406 473.773438 C 670.550781 476.070312 668.25 478.371094 670.371094 481.550781 Z M 670.371094 481.550781 C 670.371094 481.726562 670.371094 481.726562 670.371094 481.550781 C 670.371094 481.726562 670.371094 481.726562 670.371094 481.550781 C 670.371094 481.726562 670.371094 481.550781 670.371094 481.550781 Z M 603.183594 637.984375 C 602.121094 639.929688 600.882812 640.636719 598.585938 638.867188 C 600.175781 637.628906 601.59375 637.453125 603.183594 637.984375 Z M 845.949219 674.394531 C 847.894531 675.101562 850.191406 675.28125 850.015625 678.816406 C 848.246094 677.402344 847.011719 675.988281 845.949219 674.394531 Z M 517.957031 605.636719 C 519.375 603.871094 520.789062 604.753906 523.085938 604.578125 C 520.964844 606.34375 519.726562 606.34375 517.957031 605.636719 Z M 819.957031 701.792969 C 819.605469 703.207031 819.425781 704.445312 817.835938 704.269531 C 817.660156 704.269531 817.304688 703.738281 817.304688 703.5625 C 817.480469 702.324219 818.542969 702.148438 819.957031 701.792969 Z M 461.203125 618.894531 C 461.378906 618.1875 461.910156 617.832031 462.617188 618.1875 C 463.324219 618.539062 463.324219 619.246094 462.96875 619.777344 C 462.617188 620.484375 462.261719 621.015625 461.554688 620.660156 C 460.847656 620.132812 461.023438 619.425781 461.203125 618.894531 Z M 473.046875 656.011719 C 471.988281 656.367188 470.925781 656.898438 470.394531 655.128906 C 470.394531 654.953125 470.75 654.421875 470.925781 654.421875 C 471.808594 654.421875 472.515625 654.953125 473.046875 656.011719 Z M 468.449219 652.65625 C 467.921875 654.421875 467.566406 655.484375 465.445312 656.191406 C 466.152344 654.597656 466.683594 653.539062 468.449219 652.65625 Z M 764.96875 668.738281 C 764.792969 668.738281 764.792969 668.738281 764.792969 668.738281 C 764.792969 668.738281 764.792969 668.738281 764.96875 668.738281 Z M 764.792969 668.738281 C 764.085938 668.738281 763.730469 668.5625 763.90625 667.855469 C 764.085938 667.148438 764.96875 666.972656 765.320312 667.503906 C 766.027344 668.03125 765.5 668.386719 764.792969 668.738281 Z M 824.023438 697.90625 C 824.378906 698.257812 824.023438 698.789062 823.847656 699.140625 C 823.671875 699.140625 823.140625 699.320312 823.140625 699.140625 C 822.785156 698.789062 822.964844 698.257812 823.316406 697.90625 C 823.492188 697.90625 824.023438 697.90625 824.023438 697.90625 Z M 419.296875 631.445312 C 418.765625 630.914062 418.589844 630.03125 419.121094 629.324219 C 419.296875 629.144531 419.648438 628.96875 419.828125 629.144531 C 420.710938 629.675781 420.355469 630.558594 420.003906 631.265625 C 419.828125 631.445312 419.472656 631.621094 419.296875 631.445312 Z M 630.234375 593.96875 C 631.472656 593.617188 630.765625 590.964844 632.886719 591.671875 C 633.066406 591.671875 633.242188 592.203125 633.242188 592.378906 C 632.710938 593.96875 631.472656 593.792969 630.234375 593.96875 Z M 425.660156 668.738281 C 425.839844 668.917969 426.015625 669.269531 426.015625 669.445312 C 425.839844 669.976562 425.484375 670.332031 424.953125 670.152344 C 424.601562 670.152344 424.425781 669.800781 424.601562 669.445312 C 424.777344 669.09375 425.132812 668.5625 425.660156 668.738281 Z M 421.59375 671.214844 C 421.773438 671.566406 421.773438 671.921875 421.242188 672.273438 C 420.886719 672.628906 420.355469 672.628906 420.179688 672.097656 C 420.003906 671.921875 420.179688 671.566406 420.355469 671.214844 C 420.710938 670.859375 421.242188 670.683594 421.59375 671.214844 Z M 786.007812 732.019531 C 785.832031 732.375 785.480469 732.375 785.300781 732.019531 C 785.125 731.667969 785.125 731.488281 785.125 731.136719 C 785.125 730.78125 785.300781 730.605469 785.65625 730.78125 C 786.1875 731.136719 786.1875 731.488281 786.007812 732.019531 Z M 809.347656 710.277344 C 809.523438 710.457031 809.703125 710.808594 809.523438 711.164062 C 809.171875 711.515625 808.640625 711.339844 808.464844 711.164062 C 808.289062 710.984375 808.109375 710.632812 808.109375 710.457031 C 808.109375 709.925781 808.640625 709.75 809.347656 710.277344 Z M 886.261719 656.542969 C 886.441406 656.71875 886.617188 657.074219 886.617188 657.25 C 886.441406 657.78125 886.085938 657.957031 885.554688 657.957031 C 885.378906 657.957031 885.203125 657.425781 885.203125 657.25 C 885.378906 656.71875 885.730469 656.542969 886.261719 656.542969 Z M 403.03125 643.285156 C 403.03125 643.285156 403.03125 643.464844 403.03125 643.285156 C 403.03125 643.464844 403.03125 643.464844 403.03125 643.285156 C 403.03125 643.464844 402.851562 643.464844 403.03125 643.285156 C 402.851562 643.285156 402.851562 643.285156 403.03125 643.285156 Z M 401.96875 642.402344 C 402.324219 642.757812 402.5 642.933594 402.851562 643.285156 C 402.5 643.285156 401.96875 643.285156 401.613281 643.285156 C 401.085938 643.285156 400.730469 643.109375 400.554688 642.578125 C 400.554688 642.402344 400.554688 642.226562 400.730469 642.226562 C 401.261719 641.871094 401.613281 642.050781 401.96875 642.402344 Z M 401.96875 642.402344 " fill-opacity="1" fill-rule="nonzero"/></g><g clip-path="url(#e9dd17b40b)"><path fill="#4a2b1a" d="M 1485.980469 1050.109375 C 1480.109375 1062.292969 1457.089844 1075.496094 1443.914062 1086.28125 C 1439.558594 1085.796875 1435.207031 1085.171875 1430.980469 1084.394531 C 1416.101562 1081.6875 1405.875 1077.917969 1395.414062 1072.160156 C 1389.101562 1073.902344 1383.546875 1076.996094 1379.199219 1079.898438 C 1372.707031 1077.289062 1366.460938 1074.53125 1360.40625 1071.628906 C 1356.996094 1073.320312 1355.863281 1075.496094 1353.285156 1077.382812 C 1350.886719 1079.175781 1347.355469 1080.816406 1344.703125 1082.507812 C 1338.328125 1086.617188 1332.410156 1090.921875 1326.855469 1095.328125 C 1308.066406 1089.472656 1289.332031 1083.863281 1272.046875 1077.046875 C 1256.785156 1071 1239.761719 1064.957031 1221.285156 1061.910156 C 1211.695312 1060.3125 1215.226562 1058.332031 1204.628906 1059.730469 C 1199.148438 1060.457031 1191.449219 1065.003906 1187.035156 1066.84375 C 1170.511719 1073.855469 1156.957031 1082.605469 1140.425781 1089.472656 C 1124.789062 1096.050781 1103.28125 1093.050781 1084.359375 1095.328125 C 1047.851562 1099.675781 1024.769531 1117.757812 1009.558594 1135.21875 C 1007.921875 1137.105469 1003.640625 1138.023438 999.664062 1138.703125 C 979.988281 1142.039062 959.429688 1144.117188 938.683594 1144.84375 C 926.1875 1145.277344 911.117188 1145.953125 905.441406 1151.65625 C 899.890625 1157.269531 884.1875 1156.976562 872.015625 1155.914062 C 852.023438 1154.125 831.96875 1152.386719 811.972656 1150.59375 C 803.902344 1149.871094 795.453125 1149.191406 787.628906 1150.304688 C 778.109375 1151.707031 776.339844 1154.707031 773.191406 1158.671875 C 769.78125 1162.976562 765.429688 1166.988281 760.386719 1171.195312 C 759.058594 1172.257812 757.609375 1173.421875 755.34375 1174 C 753.320312 1174.480469 750.925781 1174.480469 748.65625 1174.386719 C 739.195312 1174.050781 729.800781 1173.128906 720.714844 1171.679688 C 707.976562 1169.648438 692.210938 1166.894531 683 1171.773438 C 679.535156 1173.613281 677.640625 1176.417969 673.101562 1177.53125 C 669.507812 1178.351562 665.28125 1177.917969 661.433594 1177.484375 C 639.488281 1174.917969 617.03125 1170.375 595.339844 1168.195312 C 570.996094 1165.78125 543.308594 1167.808594 518.523438 1168.050781 C 495.316406 1168.339844 471.917969 1168.535156 448.960938 1166.894531 C 430.863281 1165.589844 413.140625 1163.117188 395.351562 1160.992188 C 344.265625 1154.851562 291.859375 1151.5625 239.386719 1151.222656 C 225.640625 1151.128906 211.640625 1151.222656 198.394531 1149.386719 C 187.167969 1147.835938 176.824219 1144.9375 166.609375 1142.039062 C 157.464844 1139.472656 141.320312 1132.316406 131.105469 1134.832031 C 127.003906 1135.847656 117.226562 1145.710938 122.398438 1147.835938 C 105.5625 1145.421875 91.875 1140.246094 77.429688 1135.363281 C 70.496094 1132.996094 52.078125 1124.292969 45.519531 1123.949219 C 39.464844 1123.613281 38.769531 1129.417969 32.78125 1129.898438 C 30.699219 1130.042969 28.742188 1129.464844 26.914062 1128.976562 C 14.300781 1125.355469 1.5 1122.164062 -12.121094 1123.707031 C -25.054688 1125.160156 -37.539062 1132.703125 -50.976562 1130.625 C -58.542969 1129.464844 -64.71875 1125.160156 -72.226562 1123.949219 C -81.558594 1122.453125 -90.832031 1126.027344 -99.722656 1128.640625 C -111.578125 1132.171875 -124.195312 1134.152344 -136.871094 1134.539062 C -135.921875 1131.15625 -135.234375 1127.722656 -134.726562 1124.242188 C -131.320312 1099.769531 -134.789062 1073.753906 -134.789062 1048.710938 L -134.789062 679.308594 C -134.789062 670.796875 -134.789062 528.96875 -134.789062 528.96875 C -134.789062 528.96875 -134.726562 528.96875 -134.660156 528.96875 L -134.660156 525.390625 C -134.660156 514.222656 -141.347656 501.503906 -135.921875 490.574219 C -130.0625 478.628906 -107.039062 465.71875 -93.859375 455.179688 C -89.570312 455.660156 -85.21875 456.292969 -80.992188 457.0625 C -66.109375 459.675781 -55.894531 463.398438 -45.488281 469.007812 C -39.179688 467.316406 -33.632812 464.269531 -29.277344 461.414062 C -22.78125 463.976562 -16.539062 466.683594 -10.484375 469.539062 C -7.078125 467.847656 -5.945312 465.71875 -3.355469 463.882812 C -1.023438 462.140625 2.507812 460.542969 5.15625 458.898438 C 11.527344 454.886719 17.453125 450.679688 23.003906 446.375 C 41.796875 452.085938 60.46875 457.546875 77.746094 464.21875 C 92.945312 470.117188 109.972656 476.066406 128.453125 479.015625 C 137.976562 480.566406 134.507812 482.5 145.039062 481.144531 C 150.527344 480.421875 158.21875 476.015625 162.636719 474.179688 C 179.15625 467.363281 192.65625 458.804688 209.179688 452.085938 C 224.820312 445.652344 246.261719 448.601562 265.183594 446.375 C 301.636719 442.117188 324.65625 424.421875 339.855469 407.351562 C 341.496094 405.511719 345.785156 404.597656 349.753906 403.96875 C 369.371094 400.679688 389.929688 398.648438 410.679688 397.972656 C 423.101562 397.535156 438.175781 396.859375 443.851562 391.296875 C 449.402344 385.785156 465.042969 386.074219 477.214844 387.136719 C 497.203125 388.878906 517.199219 390.574219 537.191406 392.3125 C 545.261719 393.039062 553.652344 393.714844 561.472656 392.601562 C 570.996094 391.25 572.761719 388.300781 575.914062 384.429688 C 579.320312 380.226562 583.671875 376.304688 588.71875 372.199219 C 590.042969 371.132812 591.492188 370.019531 593.761719 369.441406 C 595.71875 368.957031 598.117188 368.957031 600.382812 369.054688 C 609.84375 369.390625 619.242188 370.3125 628.320312 371.714844 C 641.0625 373.699219 656.769531 376.40625 665.972656 371.613281 C 669.441406 369.828125 671.335938 367.070312 675.875 366.007812 C 679.472656 365.1875 683.695312 365.621094 687.480469 366.058594 C 709.429688 368.570312 731.882812 372.96875 753.511719 375.097656 C 777.851562 377.46875 805.480469 375.484375 830.199219 375.242188 C 853.410156 374.953125 876.746094 374.804688 899.703125 376.40625 C 917.746094 377.660156 935.460938 380.082031 953.246094 382.160156 C 1004.269531 388.15625 1056.546875 391.394531 1108.960938 391.730469 C 1122.703125 391.78125 1136.710938 391.730469 1149.890625 393.523438 C 1161.109375 395.023438 1171.457031 397.871094 1181.667969 400.679688 C 1190.816406 403.191406 1206.898438 410.203125 1217.121094 407.738281 C 1221.21875 406.722656 1230.988281 397.101562 1225.816406 395.023438 C 1242.601562 397.390625 1256.28125 402.417969 1270.722656 407.207031 C 1277.664062 409.527344 1296.011719 418.039062 1302.574219 418.378906 C 1308.632812 418.714844 1309.328125 413.011719 1315.3125 412.574219 C 1317.390625 412.429688 1319.351562 412.960938 1321.179688 413.445312 C 1333.734375 417.023438 1346.597656 420.117188 1360.148438 418.621094 C 1373.023438 417.214844 1385.507812 409.816406 1398.945312 411.847656 C 1406.507812 413.011719 1412.691406 417.214844 1420.199219 418.378906 C 1429.464844 419.828125 1438.738281 416.347656 1447.625 413.785156 C 1459.425781 410.347656 1472.035156 408.417969 1484.71875 408.027344 C 1483.769531 411.367188 1483.074219 414.703125 1482.636719 418.085938 C 1479.164062 442.023438 1482.636719 467.460938 1482.636719 491.925781 L 1482.636719 528.96875 C 1484.023438 528.96875 1484.71875 528.96875 1484.71875 528.96875 L 1484.71875 1014.46875 C 1484.71875 1025.882812 1491.460938 1038.890625 1485.980469 1050.109375 " fill-opacity="1" fill-rule="nonzero"/></g></svg>